<?xml version="1.0" standalone="no"?>
<!DOCTYPE svg PUBLIC "-//W3C//DTD SVG 20010904//EN"
 "http://www.w3.org/TR/2001/REC-SVG-20010904/DTD/svg10.dtd">
<svg version="1.0" xmlns="http://www.w3.org/2000/svg"
 width="325.000000pt" height="328.000000pt" viewBox="0 0 325.000000 328.000000"
 preserveAspectRatio="xMidYMid meet">
<metadata>
Created by potrace 1.16, written by Peter Selinger 2001-2019
</metadata>
<g transform="translate(0.000000,328.000000) scale(0.100000,-0.100000)"
fill="#000000" stroke="none">
<path d="M899 2218 c-9 -16 -10 -71 -5 -202 6 -150 8 -825 3 -931 -2 -24 2
-31 22 -33 13 -2 27 0 32 5 5 5 9 239 10 521 0 282 4 512 8 512 7 0 71 -140
71 -155 0 -3 9 -25 19 -48 11 -23 38 -89 61 -147 23 -58 45 -109 49 -115 4 -5
20 -41 36 -80 56 -140 135 -318 183 -415 28 -57 44 -77 65 -84 60 -21 58 -38
60 599 1 519 0 579 -14 588 -9 6 -24 7 -33 4 -18 -7 -21 -146 -17 -755 2 -313
-2 -349 -30 -265 -7 21 -30 76 -51 123 -22 47 -46 100 -54 117 -8 18 -25 61
-39 95 -13 35 -30 77 -38 93 -8 17 -34 75 -57 130 -23 55 -47 114 -55 130 -7
17 -37 89 -65 160 -28 72 -58 140 -66 153 -20 31 -78 31 -95 0z"/>
<path d="M1794 2215 c-17 -12 -18 -51 -22 -508 -4 -480 -1 -607 18 -637 8 -12
37 -15 152 -15 245 1 316 39 364 194 11 37 13 108 9 366 -4 323 -13 434 -39
483 -26 49 -79 90 -140 107 -76 22 -317 29 -342 10z m233 -65 c129 -14 184
-50 202 -131 17 -77 26 -665 11 -729 -16 -69 -44 -116 -79 -135 -44 -22 -187
-38 -256 -28 l-60 8 -3 490 c-1 270 0 500 3 513 5 19 12 22 53 22 26 0 84 -4
129 -10z"/>
</g>
</svg>
