<?xml version="1.0" standalone="no"?>
<!DOCTYPE svg PUBLIC "-//W3C//DTD SVG 20010904//EN"
 "http://www.w3.org/TR/2001/REC-SVG-20010904/DTD/svg10.dtd">
<svg version="1.0" xmlns="http://www.w3.org/2000/svg"
 width="200.000000pt" height="200.000000pt" viewBox="0 0 200.000000 200.000000"
 preserveAspectRatio="xMidYMid meet">
<metadata>
Created by potrace 1.16, written by Peter Selinger 2001-2019
</metadata>
<g transform="translate(0.000000,200.000000) scale(0.100000,-0.100000)"
fill="#000000" stroke="none">
<path d="M662 1822 c-16 -11 -27 -327 -27 -775 0 -233 -2 -275 -13 -260 -19
25 -114 215 -147 293 -15 36 -42 97 -61 137 -19 39 -34 78 -34 87 0 9 -4 24
-9 34 -5 9 -21 56 -35 103 -32 106 -56 134 -126 142 -54 7 -95 -6 -105 -31 -3
-8 6 -39 21 -68 23 -47 25 -57 14 -86 -40 -112 -14 -697 44 -974 16 -76 23
-85 66 -90 25 -3 32 1 41 22 5 15 10 37 11 50 1 13 9 24 16 24 11 0 13 7 8 28
-4 15 -6 34 -5 42 5 48 -3 176 -12 186 -7 9 -7 19 1 34 8 16 8 30 0 55 -6 19
-9 39 -6 44 4 5 1 22 -4 37 -12 29 -18 180 -8 189 3 3 15 -17 26 -45 11 -27
26 -50 33 -50 6 0 9 -6 6 -14 -3 -7 -2 -17 3 -22 5 -5 25 -40 45 -79 20 -38
45 -79 55 -90 10 -11 29 -38 43 -60 13 -22 54 -75 90 -118 35 -43 79 -104 96
-137 18 -33 42 -66 54 -75 20 -14 23 -14 34 2 7 9 13 29 13 45 0 15 5 28 11
28 7 0 9 10 6 25 -3 18 2 30 16 40 12 8 19 16 16 18 -2 2 -16 10 -30 19 -32
20 -68 131 -49 153 16 20 8 39 -20 46 -14 3 -24 11 -22 18 2 8 -1 26 -7 42
-11 31 8 57 31 43 10 -6 10 -4 0 9 -12 14 -10 15 21 10 l34 -5 2 58 c1 33 4
140 7 239 2 99 8 218 12 265 4 47 4 114 -1 149 -5 35 -4 75 1 90 16 49 -13
124 -61 156 -30 19 -78 28 -95 17z"/>
<path d="M1272 1754 c-12 -8 -29 -28 -37 -44 -8 -16 -34 -37 -61 -50 -52 -26
-74 -60 -54 -85 16 -19 34 -19 63 0 l23 14 -4 -277 c-2 -182 2 -368 13 -542 9
-146 17 -285 18 -309 2 -43 1 -44 -58 -81 -69 -42 -78 -65 -25 -65 19 0 50 4
68 7 29 7 32 5 32 -15 0 -49 43 -61 79 -23 19 21 22 31 16 65 -6 38 -5 42 19
51 14 5 26 17 26 26 0 26 42 53 82 54 30 0 42 7 66 38 17 21 34 51 38 66 4 17
9 23 14 16 5 -7 21 1 49 26 42 38 75 90 66 104 -3 4 4 10 15 13 11 3 20 13 20
24 0 10 9 31 19 47 11 16 17 35 14 42 -2 6 5 15 16 19 45 14 37 283 -13 397
-9 21 -16 48 -16 62 0 13 -10 37 -23 53 -13 15 -24 38 -25 51 -5 104 -183 258
-298 261 -23 1 -43 12 -67 36 -40 40 -44 41 -75 19z m179 -201 c14 -15 37 -47
53 -70 34 -50 105 -229 106 -263 0 -14 6 -37 14 -52 10 -19 12 -37 6 -64 -5
-21 -6 -50 -3 -65 16 -82 -83 -328 -173 -428 -38 -42 -49 -49 -61 -40 -9 9
-11 15 -3 23 5 5 10 19 10 31 0 12 5 26 11 32 8 8 8 17 0 31 -6 12 -8 46 -4
84 3 36 0 88 -6 118 -7 30 -14 167 -16 304 -3 137 -7 251 -9 253 -2 3 0 17 6
33 6 20 6 35 -1 49 -8 13 -8 28 -1 46 11 30 29 25 71 -22z"/>
</g>
</svg>
