<?xml version="1.0" standalone="no"?>
<!DOCTYPE svg PUBLIC "-//W3C//DTD SVG 20010904//EN"
 "http://www.w3.org/TR/2001/REC-SVG-20010904/DTD/svg10.dtd">
<svg version="1.0" xmlns="http://www.w3.org/2000/svg"
 width="325.000000pt" height="328.000000pt" viewBox="0 0 325.000000 328.000000"
 preserveAspectRatio="xMidYMid meet">
<metadata>
Created by potrace 1.16, written by Peter Selinger 2001-2019
</metadata>
<g transform="translate(0.000000,328.000000) scale(0.100000,-0.100000)"
fill="#000000" stroke="none">
<path d="M913 2240 l-22 -9 2 -593 2 -593 24 -3 c51 -8 51 -7 52 537 l0 506
25 -55 c14 -30 34 -77 44 -105 47 -127 250 -600 328 -766 43 -92 54 -108 81
-117 27 -10 35 -8 50 7 18 18 19 45 18 603 l-2 583 -29 3 c-16 2 -32 -2 -37
-10 -5 -7 -9 -245 -9 -528 -1 -507 -1 -514 -19 -470 -10 25 -35 81 -55 125
-21 44 -55 123 -76 175 -21 52 -68 165 -105 250 -37 85 -91 216 -121 290 -30
74 -62 145 -70 158 -15 23 -43 27 -81 12z"/>
<path d="M1838 2233 c-25 -2 -51 -9 -56 -16 -9 -10 -17 -735 -13 -1054 1 -114
0 -113 169 -113 218 0 296 29 347 129 43 86 50 183 37 522 -6 167 -16 325 -22
351 -7 29 -26 63 -50 91 -33 37 -50 47 -112 65 -74 21 -213 33 -300 25z m299
-115 c26 -12 56 -35 66 -50 28 -38 38 -163 39 -490 0 -309 -7 -355 -63 -402
-37 -32 -77 -39 -214 -40 l-110 -1 -3 509 -2 509 120 -6 c99 -4 129 -9 167
-29z"/>
</g>
</svg>
